<?xml version="1.0" encoding="utf-8"?>
<!-- Generator: Adobe Illustrator 19.1.1, SVG Export Plug-In . SVG Version: 6.00 Build 0)  -->
<svg version="1.1" id="Layer_1" xmlns="http://www.w3.org/2000/svg" xmlns:xlink="http://www.w3.org/1999/xlink" x="0px" y="0px"
	 viewBox="0 0 40 40" style="enable-background:new 0 0 40 40;" xml:space="preserve">
<style type="text/css">
	.st0{fill:none;stroke:#525352;stroke-width:1.8;stroke-miterlimit:10;}
</style>
<g>
	<g>
		<path class="st0" d="M28.9,13.2h2.5c1.4,0,2.5-1.1,2.5-2.5V9.6c0-1.4-1.1-2.5-2.5-2.5h-2.5c-4.1,0-7.4,3.6-7.4,8v0.6
			c0,1.4-1.1,2.5-2.5,2.5h0c-1.4,0-2.5,1.1-2.5,2.5v1.2c0,1.4,1.1,2.5,2.5,2.5h0c1.4,0,2.5,1.1,2.5,2.5v9.9c0,1.4,1.1,2.5,2.5,2.5
			h1.2c1.4,0,2.5-1.1,2.5-2.5v-9.9c0-1.4,1.1-2.5,2.5-2.5h1.2c1.4,0,2.5-1.1,2.5-2.5v-1.2c0-1.4-1.1-2.5-2.5-2.5h-1.2
			c-1.4,0-2.5-1.1-2.5-2.5v-0.7C27.6,14,28.3,13.2,28.9,13.2z"/>
	</g>
	<g>
		<g>
			<path class="st0" d="M32.6,1.8H10.2c-4.8,0-8.7,3.9-8.7,8.7v20c0,4.8,3.9,8.7,8.7,8.7h20c4.8,0,8.7-3.9,8.7-8.7V8
				C38.8,4.5,36,1.8,32.6,1.8L32.6,1.8z"/>
		</g>
	</g>
</g>
</svg>
