<?xml version="1.0" encoding="utf-8"?>
<!-- Generator: Adobe Illustrator 19.1.1, SVG Export Plug-In . SVG Version: 6.00 Build 0)  -->
<svg version="1.1" id="Layer_1" xmlns="http://www.w3.org/2000/svg" xmlns:xlink="http://www.w3.org/1999/xlink" x="0px" y="0px"
	 viewBox="0 0 40 40" style="enable-background:new 0 0 40 40;" xml:space="preserve">
<style type="text/css">
	.st0{fill:none;stroke:#525352;stroke-width:1.8;stroke-miterlimit:10;}
</style>
<g>
	<polygon class="st0" points="38.1,9.8 32.5,9.8 32.5,4.3 29.7,4.3 29.7,9.8 24,9.8 24,12.7 29.7,12.7 29.7,18.4 32.5,18.4 
		32.5,12.7 38.1,12.7 	"/>
	<path class="st0" d="M17.1,27.9c-1.2-0.8-3.4-2.8-3.4-4c0-1.4,0.4-2.1,2.5-3.7c2.1-1.7,3.6-4,3.6-6.7c0-3.2-1.4-6.4-4.1-7.4h4.1
		L22.7,4c0,0-9.7,0-12.9,0C7.2,4,3,5.5,1,7.5v12.3c1.8,2.1,5.1,3,7.4,3c0.4,0,0.8,0,1.2,0c-0.4,0.7-0.7,1.6-0.7,2.4
		c0,1.4,0.8,2.6,1.8,3.6c-0.7,0-1.5,0-2.2,0c-2.1,0-5.1,0.8-7.4,2.3c0.1,0.9,0.3,1.7,0.7,2.4c1.8-1.8,5-3.5,8-3.5
		c1.2,0,2.2,0.2,3.2,0.5c2.7,1.9,4.6,2.9,5.1,5c0.1,0.4,0.2,0.9,0.2,1.3c0,0,0,0,0,0h3.3c0-0.2,0-0.4,0-0.6
		C21.6,32.6,20.5,30.3,17.1,27.9z M10.3,21.5c-3.3-0.1-6.5-3.7-7-8.1c-0.6-4.4,1.7-7.7,5-7.6c3.3,0.1,6.5,3.6,7,7.9
		C15.8,18.1,13.6,21.6,10.3,21.5z"/>
</g>
</svg>
