<?xml version="1.0" encoding="utf-8"?>
<!-- Generator: Adobe Illustrator 19.1.1, SVG Export Plug-In . SVG Version: 6.00 Build 0)  -->
<svg version="1.1" id="Calque_1" xmlns="http://www.w3.org/2000/svg" xmlns:xlink="http://www.w3.org/1999/xlink" x="0px" y="0px"
	 viewBox="0 0 566.9 566.9" style="enable-background:new 0 0 566.9 566.9;" xml:space="preserve">
<style type="text/css">
	.st0{fill-rule:evenodd;clip-rule:evenodd;fill:#303030;}
	.st1{fill:#EDA111;}
	.st2{fill:#EDA111;}
	.st3{fill:#303030;}
	.st4{fill:#EDA111;}
	.st5{fill:#EDA111;}
	.st6{fill:#EDA111;}
	.white{fill:#ffffff;}
	.gold{fill:white;}
</style>
<g class="loghover">
	<g>
		<path class="st0" d="M283.9,1.5C127.8,1.5,1.2,128.3,1.2,284.7C1.2,441.2,127.8,568,283.9,568c156.2,0,282.7-126.8,282.7-283.3
			C566.6,128.3,440.1,1.5,283.9,1.5"/>
	</g>
	<path class="st1" d="M318.7,243.2l-16.1,23.3l6.3,4.2l15.7-22.9l15.8,22.9l6.2-4.2l-16.1-23.3l-5.9,4L318.7,243.2z M362.9,243.2
		l-16.1,23.3l6.2,4.2l15.8-22.9l15.8,22.9l6.2-4.2l-16-23.3l-5.9,4L362.9,243.2z M274.4,243.2l-16.1,23.3l6.2,4.2l15.8-22.9
		l15.8,22.9l6.2-4.2l-16.1-23.3l-5.9,4L274.4,243.2z M185.9,243.2l-16.1,23.3l6.2,4.2l15.8-22.9l15.8,22.9l6.2-4.2l-16-23.3l-5.9,4
		L185.9,243.2z M230.2,243.2l-16.1,23.3l6.2,4.2l15.8-22.9l15.8,22.9l6.2-4.2L242,243.2l-5.9,4L230.2,243.2z M391.6,235.7H169v7.1
		h222.6V235.7z M166.8,271.1v29.2h63.6V438h18.6V336h0.1c-0.1-0.8-0.1-1.7-0.1-2.6c0-16.6,14-30.1,31.3-30.1
		c17.4,0,31.4,13.5,31.4,30.1c0,0.9-0.1,1.8-0.1,2.6h0.1V438h18.5V300.3h63.6v-29.2H166.8z M391.6,199.5h-0.1v-27.3l-17,1.2l1.3,6.2
		l-3,0.2l1.5,7.3l-3.2,0.2l2.5,12h-13.4l2.7-14.2l-1.6-0.2l0.8-4.1l-1.5-0.1l0.6-3h-15.6l0.5,3l-1.5,0.1l0.8,4.1l-1.7,0.2l2.7,14.2
		h-15.3l2.7-14.2l-1.6-0.2l0.8-4.1l-1.5-0.1l0.6-3h-15.6l0.5,3l-1.5,0.1l0.8,4.1l-1.6,0.2l2.7,14.2h-15.3l2.7-14.2l-1.7-0.2l0.8-4.1
		l-1.5-0.1l0.6-3h-15.7l0.6,3l-1.5,0.1l0.8,4.1l-1.7,0.2l2.7,14.2h-15.3l2.7-14.2l-1.7-0.2l0.8-4.1l-1.5-0.1l0.5-3h-15.6l0.6,3
		l-1.5,0.1l0.8,4.1l-1.6,0.2l2.7,14.2h-15.3l2.7-14.2l-1.7-0.2l0.8-4.1l-1.5-0.1l0.6-3h-15.7l0.6,3l-1.5,0.1l0.8,4.1l-1.6,0.2
		l2.7,14.2h-15.3l2.7-14.2l-1.6-0.2l0.8-4.1l-1.5-0.1l0.6-3h-15.7l0.6,3l-1.5,0.1l0.8,4.1l-1.7,0.2l2.7,14.2H187l2.5-12l-3.3-0.2
		l1.6-7.3l-3-0.2l1.3-6.2l-17-1.2v27.3H169v33h222.6V199.5z "/>
	 <path class="gold" d="M306.9,166.8c11,0,19.9-8.9,19.9-19.9c0-11-8.9-19.9-19.9-19.9
		c-11,0-19.9,8.9-19.9,19.9C286.9,157.9,295.8,166.8,306.9,166.8z">
	
     <animateTransform attributeName='transform'
    type="translate"
    from="0"
    dur="1s"
    values="5,0;-5,0;5,0"
    repeatCount="indefinite" />
	
	
	</path>
    <path class="gold" d="M253.8,166.8c11,0,19.9-8.9,19.9-19.9c0-11-8.9-19.9-19.9-19.9
		c-11,0-19.9,8.9-19.9,19.9C233.8,157.9,242.8,166.8,253.8,166.8z">
	
     <animateTransform attributeName='transform'
    type="translate"
    from="0"
    dur="1s"
    values="-5,0;5,0;-5,0"
    repeatCount="indefinite" />
	
	
	</path>

	<path class="st2" d="M316.6,109.8c-96.3-19.3-190.1,43.2-209.3,139.5C88,345.6,150.5,439.3,246.8,458.6
		c96.3,19.3,190.1-43.2,209.4-139.5C475.4,222.8,412.9,129,316.6,109.8z M248.6,449.5c-91.3-18.3-150.5-107.1-132.2-198.4
		c18.3-91.3,107.1-150.5,198.4-132.2C406.1,137.2,465.3,226,447,317.3C428.7,408.5,339.9,467.7,248.6,449.5z"/>
	<path class="st2" d="M334.9,18.4C188.1-11,45.3,84.2,15.9,231c-29.4,146.8,65.8,289.6,212.6,319c146.8,29.4,289.6-65.8,319-212.6
		C576.9,190.6,481.7,47.8,334.9,18.4z M540,335.9c-28.6,142.6-167.3,235.2-310,206.6C87.3,513.9-5.2,375.1,23.4,232.4
		C52,89.8,190.8-2.7,333.4,25.8C476.1,54.4,568.6,193.2,540,335.9z"/>
	<polygon class="st3" points="234.8,384.2 234.8,384.2 232.4,384.2 227.1,384.2 220.1,383 217.2,381.9 214.8,380.7 214.8,380.7 
		216.6,379.4 218.4,378.3 220.1,375.9 221.3,373.6 221.9,370.7 221.3,367.1 219.5,363 219.5,363 221.3,362.4 223.1,362.4 226,362.4 
		226,362.4 227.8,362.4 229.5,361.8 230.1,360.1 230.1,360.1 203,351.2 182.5,344.8 168.9,339.4 168.9,339.4 160.7,335.9 151.2,330 
		146.5,327.1 142.4,323.6 138.9,319.4 136.6,315.3 136.6,315.3 136,311.8 136,311.8 136,311.2 136.6,309.5 136.6,309.5 138.3,307.1 
		141.9,304.7 141.9,304.7 145.4,302.3 147.7,300.6 150.7,298.8 154.8,298.2 159.5,297.7 166,297.7 173.6,298.8 173.6,298.8 
		241.3,317.1 291.3,330.6 321.3,339.4 344.3,336.5 344.3,336.5 346,336.5 350.1,335.9 352.5,335.3 354.2,334.1 355.4,332.4 
		356,330.6 356,330.6 373.1,331.2 373.1,331.2 375.4,330 379.6,326.5 389.6,317.1 403.1,302.3 413.7,305.9 403.1,327.7 446.1,324.8 
		457.3,327.7 400.2,340.6 375.4,351.8 375.4,355.9 390.2,351.8 386.6,361.8 386.6,361.8 388.4,363.6 392.5,367.1 394.3,369.4 
		395.5,372.4 396,374.1 396,375.9 396,375.9 394.9,377.1 393.7,377.7 389,378.9 383.1,379.4 376.1,380.1 359.6,380.7 344.9,380.7 
		344.9,380.7 337.2,380.1 327.2,378.9 304.9,375.9 277.8,371.2 273.1,378.9 234.8,384.2 	"/>
	
    
	<polygon class="gold" points="318.4,381.2 314.8,361.8 450.2,328.9 457.3,330.6 401.9,344.1 414.9,348.9 369.6,356.5 358.4,359.5 
		339.6,368.3 340.7,370.1 318.4,381.2 	"/>
	<polygon class="gold" points="166,308.3 327.2,348.3 326,351.8 175.4,320 166,308.3 	"/>
	<polygon class="gold" points="141.9,304.7 141.9,304.7 143.6,303 146,300.6 148.9,298.2 153,295.9 158.3,294.2 164.2,293.5 
		171.9,294.2 171.9,294.2 183.7,296.5 201.8,301.2 247.2,314.1 307.8,332.4 307.8,332.4 187.1,303.5 187.1,303.5 176,300.6 
		170.1,300 164.2,299.4 158.3,299.4 152.4,300 146.5,301.8 141.9,304.7 141.9,304.7 	"/>
	<polygon class="gold" points="136.6,311.8 136.6,311.8 136,307.7 136,307.7 135.4,308.8 134.8,310.6 134.2,312.4 134.2,312.4 
		134.2,313.6 134.2,313.6 134.8,315.3 135.4,317.7 136.6,320 138.9,322.4 141.3,325.3 145.4,328.3 150.1,331.2 156,334.1 156,334.1 
		153.6,332.4 147.7,327.1 144.2,323.6 141.3,320 138.3,315.9 136.6,311.8 136.6,311.8 	"/>
	<polygon class="gold" points="170.7,340 170.7,340 284.2,374.1 284.2,374.1 268.9,370.7 234.2,362.4 214.2,357.1 196,351.2 
		187.7,348.3 180.7,345.3 174.8,342.4 170.7,340 170.7,340 	"/>
	<polygon class="gold" points="212.5,360.6 212.5,360.6 211.3,362.4 210.1,363.6 208.9,365.9 208.3,368.9 208.3,371.8 208.9,375.9 
		211.3,380.1 211.3,380.1 211.3,371.8 211.9,365.9 212.5,360.6 212.5,360.6 	"/>
	<polygon class="gold" points="219.5,363 219.5,363 219.5,364.2 220.1,367.7 220.1,369.4 219.5,372.4 218.4,375.3 216.6,378.3 
		216.6,378.3 218.9,377.7 220.7,377.1 221.9,375.3 223.1,373.6 223.6,371.2 222.5,367.7 219.5,363 219.5,363 	"/>
	<polygon class="gold" points="216.6,360.1 216.6,360.1 218.9,360.1 224.2,360.6 227.1,361.2 230.7,361.8 233.6,363.6 236.6,365.3 
		236.6,365.3 228.4,364.2 221.9,362.4 218.9,361.2 216.6,360.1 216.6,360.1 	"/>
	<polygon class="gold" points="214.8,380.7 214.8,380.7 221.9,382.4 228.4,383.5 234.8,384.2 234.8,384.2 233.1,384.7 230.7,385.9 
		227.8,385.9 224.8,385.9 221.3,385.3 218.4,383.5 214.8,380.7 214.8,380.7 	"/>
	<polygon class="gold" points="238.3,384.7 238.9,394.2 253.1,393.6 241.9,390.1 238.3,384.7 	"/>
	<polygon class="gold" points="369.6,365.3 369.6,365.3 402.5,356.5 426.7,350.7 435.5,348.9 440.2,347.7 440.2,347.7 445.5,348.3 
		450.8,349.4 456.1,351.2 440.2,351.2 371.3,368.9 371.3,368.9 370.7,368.9 369.6,368.9 369.6,368.3 369,367.7 369,366.5 
		369.6,365.3 369.6,365.3 	"/>
	<polygon class="gold" points="466.1,325.9 466.1,325.9 458.4,324.2 449.6,322.4 449.6,322.4 429.6,324.8 388.4,330.6 328.4,338.9 
		448.4,325.9 448.4,325.9 451.4,326.5 456.7,327.1 462.5,327.7 464.9,327.1 466.1,325.9 466.1,325.9 	"/>
	<polygon class="gold" points="345.5,332.4 345.5,332.4 345.5,330.6 346.6,328.3 347.8,326.5 350.7,325.3 352.5,324.8 354.9,324.8 
		360.1,325.9 367.8,328.9 367.8,328.9 364.9,328.9 358.4,328.3 354.2,328.3 350.7,329.5 347.2,330.6 345.5,332.4 345.5,332.4 	"/>
	<polygon class="gold" points="370.7,325.9 399,295.3 414.3,303 399.6,300.6 372.5,328.3 370.7,325.9 	"/>
	<polygon class="gold" points="338.4,356.5 346.6,370.7 346.6,370.7 334.9,376.5 326.6,380.1 324.3,380.7 323.7,380.7 323.7,380.7 
		323.7,380.7 326.6,377.7 331.9,373.6 339.6,368.3 338.4,356.5 	"/>
	<polygon class="gold" points="350.7,355.9 353.7,363.6 405.4,349.4 396,348.3 358.4,359.5 350.7,355.9 	"/>
	<polygon class="gold" points="407.2,343 452.5,331.8 443.1,337.1 407.2,343 	"/>
	<polygon class="gold" points="160.1,302.3 160.1,306.5 156,305.9 156,302.3 160.1,302.3 	"/>
	<polygon class="gold" points="154.8,302.3 154.8,305.9 154.8,305.9 150.7,305.3 151.2,302.3 154.8,302.3 	"/>
	<polygon class="gold" points="150.1,302.3 149.5,305.3 149.5,305.3 144.2,304.7 146.5,302.3 146.5,302.3 147.7,302.3 150.1,302.3 
		150.1,302.3 	"/>
	<polygon class="gold" points="407.2,343 414.9,348.9 415.5,345.9 407.2,343 	"/>
	<polygon class="gold" points="440.2,351.2 449.6,355.9 393.1,374.7 364.9,369.4 440.2,351.2 	"/>
	<polygon class="gold" points="154.8,321.8 154.8,321.8 201.8,336.5 240.1,348.3 257.2,352.4 269.5,355.9 281.3,361.8 281.3,361.8 
		293.7,363 303.1,364.2 307.2,363.6 309.5,363.6 309,373 309,373 290.1,368.3 269.5,363.6 245.4,357.1 219.5,349.4 194.2,340.6 
		182.5,335.9 171.9,331.2 162.5,326.5 154.8,321.8 154.8,321.8 	"/>
	<polygon class="gold" points="283.7,351.8 283.7,351.8 290.1,354.7 296.6,357.1 303.1,358.3 299,361.8 299,361.8 297.2,361.2 
		293,359.5 287.8,355.9 285.4,354.1 283.7,351.8 283.7,351.8 	"/>
	<path class="gold" d="M283.7,395.9l0.6,1.2v1.2l-0.6,0.9v-2.6l-0.6-1.2l-2.3-1.2l-1.2,0.6l-1.2,0.6l-1.2,1.2v0.3l-0.6-0.3l-0.7-0.4
		l-0.5-1.4l-0.3-0.7l3.9-3.4l-1.2-2.4l-2.9,5.4l0-0.1l-1.2-0.6h-2.4l-1.2,0.6l-0.6,1.2l-2.4-1.2l-1.2,0.6l-1.2,0.6l-0.6,1.2
		l-0.2,0.7l-1-2.4l-0.6,2.9l0.6,1.8l0.6,1.2l1.2,0.6l0.8,0.2l0.4,0.4h2.3l1.2-1.2l0.5-0.9l0.1,0.3l1.2,0.6h0.6l0.6,1.2l0.6,1.2
		l-1.2-1.2l-0.6-0.6l1.2,2.3l1.2,1.2l1.2,0.6l1.2-0.6l1.8-1.2l0.6-0.6l-1.2,0.6l0.6-0.6l0.6-1.2l0.2-0.4l1,1h2.2l-0.4,0.6l2.4-0.6
		l1.2-0.5l0.6-1.2v-1.2l-0.6-1.8L283.7,395.9z M303.1,385.3v2.9l-0.1,0.4l-0.5-1l-0.6-1.7l-1.2-0.6h-2.1l-0.3-0.6l-1.2-1.2h-2.3
		l-1.2,1.2l-0.6,1.2l-0.4,0.9l-0.3-0.1l-0.5-0.3l-1.2-0.6l-0.5,0.3l-5.4-1.5l-3.5-1.2l1.2,5.9l5.2-1.1l-0.5,1.1l0.6,1.8l0.5,1.2
		l1.2,0.6l1.2,0.6l1.2-0.6l1.1-0.6l0.5,0.9l-1.1-0.3l1.2,1.2l0.9,0.3l0.3,0.3h2.3l1.2-0.6l0.6-0.6l-0.8,0.2l0.2-0.2l0.6-1.2h1.8
		l0.9-0.4l-0.3,0.4h0.6l1.8-1.2l0.6-0.6v-3L303.1,385.3z"/>
	<polygon class="gold" points="220.8,371.7 220.8,371.7 220.2,374.7 219.7,377.6 217.9,379.4 215.5,380 215.5,380 213.7,379.4 
		212,377.6 210.8,374.7 210.8,371.7 210.8,371.7 210.8,368.7 212,365.8 213.7,364.1 215.5,363.5 215.5,363.5 217.9,364.1 
		219.7,365.8 220.2,368.7 220.8,371.7 220.8,371.7 	"/>
	<polygon class="gold" points="354.2,334.7 354.2,334.7 354.9,333.5 354.9,331.2 354.2,330 353.7,328.9 352.5,328.9 350.7,329.5 
		350.7,329.5 349,330.6 347.8,331.8 346.6,334.7 346,336.5 346.6,337.1 354.2,334.7 	"/>
	<polygon class="gold" points="392.5,325.3 402.5,333 400.2,337.1 387.8,331.2 392.5,325.3 	"/>
	<polygon class="gold" points="330.2,384.7 330.2,384.7 340.1,384.7 361.4,384.2 373.7,383.5 384.3,381.9 388.4,380.7 391.9,379.4 
		394.3,377.7 396,375.9 396,375.9 396.6,376.5 397.8,378.3 397.8,379.4 397.2,381.2 395.5,382.4 392.5,384.2 392.5,384.2 
		387.8,385.9 381.9,387.1 374.3,388.3 366.6,388.9 357.8,388.3 349,387.7 339.6,386.5 330.2,384.7 330.2,384.7 	"/>
	<polygon class="gold" points="279,338.9 279,338.9 281.9,338.9 289.5,340 294.3,341.2 299.6,343 304.9,345.3 309.5,349.4 
		309.5,349.4 298.4,345.9 288.9,343.6 284.8,343 281.9,343 279,338.9 	"/>
	<polygon class="gold" points="274.8,358.3 274.8,358.3 287.2,361.2 298.4,363 303.7,363.6 308.4,363.6 308.4,363.6 306,364.7 
		299.6,365.3 295.4,365.9 290.1,365.9 284.8,364.7 279,363.6 274.8,358.3 	"/>
	<polygon class="gold" points="270.8,343.6 270.8,343.6 270.8,346.5 270.1,351.8 270.1,351.8 269.5,351.2 268.3,349.4 267.8,348.3 
		267.8,347.1 268.9,345.3 270.8,343.6 270.8,343.6 	"/>
	<polygon class="gold" points="309.5,353 309.5,353 310.1,356.5 309.5,360.1 309,361.8 308.4,363.6 308.4,363.6 309.5,363 
		310.7,362.4 311.9,361.2 312.5,360.1 313.1,358.3 311.9,355.9 309.5,353 309.5,353 	"/>
	<polygon class="gold" points="281.9,347.1 281.9,347.1 281.9,350.1 280.7,353 279,354.1 277.2,354.7 277.2,354.7 274.8,354.1 
		273.1,353 272.5,350.1 271.9,347.1 271.9,347.1 272.5,344.1 273.1,341.8 274.8,340 277.2,339.4 277.2,339.4 279,340 280.7,341.8 
		281.9,344.1 281.9,347.1 281.9,347.1 	"/>
	<polygon class="gold" points="160.3,344.9 160.4,344.3 164,334.2 157.6,340.6 156.5,342 154.3,342 152.4,343.9 150.6,347.5 
		151.5,350.3 152.4,352.1 156.1,354 158,353.1 159.2,352.4 159.5,353.3 159.6,352.3 159.8,352.1 160.7,350.3 161.6,347.5 	"/>
	<path class="white" d="M329.7,68.2c3.1,0.7,5.5-1.4,5.9-3.3c0.5-2.3-0.4-4.7-3.5-5.4c-4-0.9-5.3,3-5.5,3.8
		C326,65.8,327.1,67.6,329.7,68.2z M341.4,69.9c3.2,0.7,5.4-1.4,5.8-3.4c0.5-2.3-0.3-4.7-3.4-5.4c-4-0.9-5.3,3.1-5.5,3.9
		C337.8,67.5,338.7,69.3,341.4,69.9z M374.4,118.6c-2.4-2-5.3-1.2-6.4,0.2c-1.5,1.9-0.8,5.4,0.3,6.3c2.6,2,5.5,0.9,6.8-0.8
		C376.7,122.4,376.8,120.6,374.4,118.6z M383.6,125.6c-2.3-1.9-5.2-1.2-6.4,0.2c-2.4,3.1-0.3,5.9-0.3,5.9c1.7,1.3,5,2.5,7.3-0.3
		C385.5,129.8,386.3,127.7,383.6,125.6z M434.6,107.4c1.5-1.4,2.5-3.3,0.2-5.8c-2.1-2.2-4.9-1.9-6.2-0.6c-2.9,2.7-1.1,5.7-1.1,5.7
		C428.9,108.2,432.1,109.8,434.6,107.4z M428.2,153.3c6.4-6.7-5.3-10.8-11.8-17.6c-3.2-3.4-4.8-8.8-2.1-13.1c0.8-1.3,2.8-3,2.8-3
		c0.3,2.6,2.2,5.6,3.4,6.8c2.6,2.7,6.2,2.5,8.1,0.7c3.1-2.9,2.9-6.8-0.7-10.6c-6.4-6.8-14.9-5.5-18.2-2.4c-3.2,3.1-2.1,3.7-4.4,9.2
		c-4.4-2.3-6.3-4.8-6.7-5.4l0.1-0.1c0,0-0.4-0.3-2.2-1.7c-4.8-3.7-0.8-10-2.2-11.1c-4.5-3.5-3.9,5.9-13.3-1.1
		c-2-1.4-3.3-2.5-3.3-2.5l-0.4,0.5l0.1-0.5c0,0-9.3-1.1-12.5-6.5c-2.4-4.2-4.1-6-4.1-6c-4.9-1.5-6.6,6.6-11.7,5.9
		c-3.6-0.4-35.3-5.9-46.4-10.8c-12.9-5.7-24.1-8.5-17.5-24.6c5.5-13.2,18.8-18.4,21.4-21.8c-4.1-0.6-9.7,4.6-11.8,6.2
		c-2,1.4-12.1,6.3-16.3,17.8c-5.9,15.9,3.6,23.2,20.1,30.1c13.8,5.7,39.3,9.7,45.3,11.1c6,1.4,10.3-5.1,13-4
		c1.5,0.7,1.5,2.8,4.6,5.1c2.7,2,6.1,2.9,7.1,3.6c0.6,0.5,3.6,1.2,5.4,1.5c1.4,1.1,3.5,2.7,4.6,3.6c1.9,1.5,3.5-0.3,6.1-1
		c0.8,4.5-1.2,6.3,1.9,7.2c0.6,0.5,4.4,3.4,6,4.7c1.2,1.4,7.3,7.7,8.3,8.7c5.7,6,4.2,2.1,15.7,14.1
		C419.3,149.1,423.2,158.4,428.2,153.3z M60.4,199.7c0.8-2.3,0.3-5.7-2.1-6.5c-1.1-0.4-5-0.1-5.9,2.4c-1.3,3.7,0.1,5.1,2.6,7.3
		c-2.8,0.2-3.8,0.7-4.7,3.4c-0.6,1.7-1.4,4.6,2.3,5.8c2.9,1,5.2-0.6,5.8-2.4c0.4-1.1,1.2-2.1-1.9-7
		C58.1,202.1,59.4,202.5,60.4,199.7z M135.2,141.1c-9.1-5.6-7.6,6.6-15.6,9.2c-9.1,3-17.5-1.1-23.3,7.9c-2.3,3.6-3.4,8.3,1,11.1
		c1.5,1,5.4,3,7.8-0.8c1-1.6,0.3-3.9,0.2-5.7c3.1-1.1,5.9-6.5,12.1-3.2c-0.8,1.5-5.2,9.6-9.1,16c-0.9,1.3-2.5,3.5-4.1,6.5
		c-0.4,0.5-0.6,0.9-0.6,0.9l0.1,0.1c-1.9,3.6-4,8.3-5.6,13.8c-3.5-0.2-14.5-4.5-21.8-6.8c-5.2-1.6-9.3,0-10.7,3.7
		c-0.7,1.9-2,5.9,2.8,7.3c2.2,0.6,3.9-2.6,6-2.8c1.1-0.2,4.5-0.1,5.3,0.7c1.4,1.4-6.5,16.5,7,21.2c11.3,3.8,14.5-5.6,14.5-5.6
		s0.9-4.3,2.3-7.4c1.6,1.5,2.1,4.5,3.8,5.8c2.9-10.5-3.7-7.3-0.4-15.9c2.4-6.4,0.6-2.1,0.6-2.1l-0.2,0c1-2.3,2.6-5.7,5.2-10.5l0.6-1
		c6-9.8,4.8-7.2,15.2-25.2c4.3-7.3,7.4-7,9.5-10.3C139.4,145.1,138.1,142.8,135.2,141.1z M94.5,206.3c-0.7,1.8-1.5,6.8-4.3,6.1
		c-1.7-0.4-3.5-1.6-4.1-3.1c-0.8-2-1.5-9.7,1.7-8.5c0.6,0.3,2.6,0.6,3.9,0.9C94.8,202.2,95.7,203.2,94.5,206.3z M238,60.3
		c-4.1-10.6-4.1-9.2-6.2-16.2c-0.5-1.7-0.5-3.3-0.8-4.7c-0.8-3.5-4.1-6.2-6-5.7c-2.9,0.7-5.9,4.6-4.9,8.8c1.6,6.8,5.6,5.5,8.1,11
		c0.7,1.5,3.5,5.6,5.1,12.3c1.3,5.5,2.9,14.9,2.9,14.9c-1.5-0.5-2.3-1.2-4-0.7c-1.8,0.4-4.2,1-5.8,1.4l-0.1-0.2c0,0-0.5,0.2-1.3,0.5
		c-0.1,0-0.1,0.1-0.1,0.1s0,0,0,0c-1.5,0.5-3.5,1.3-4,1.2c-1-0.7-3.5-8.5-7.2-15.8c-5.3-10.1-6.4-10.3-9.2-17
		c-0.7-1.7-0.8-3.3-1.3-4.6c-1.2-3.3-4.6-5.7-6.5-5c-2.9,1-5.5,5.3-4,9.3c2.5,6.6,6.3,4.8,9.3,10.1c1.6,2.6,11.9,23.1,11.9,23.1
		c0.5,1.4-2.9,3.8-2.9,3.8c-1.4,0.5-6.7,2.4-8,3l0,0c0,0-0.1,0-0.1,0c-0.2,0.1-0.2,0.1-0.2,0.1v0c-0.4,0.3-1.4,0.7-2.6,1.4
		c-4.2,1.1-8.2-3.9-9.9-3c-3,1.6-1,5.5-1.8,8.2c-3.9-0.9-5.6-2.2-6.5-1.7c-1.7,0.8-1,4.5-1.8,6.9c0.1,0.1,0.3,0.3,0.5,0.7
		c-0.3-0.4-0.5-0.6-0.5-0.4c-4.7-1.8-6.1-4.2-7.7-3.6c-4.7,2,3.5,6.2-5.6,11.7c-1.2,0.7-1.9,1.1-1.9,1.1l0.1,0.1
		c-0.3,0.2-0.8,0.7-1.7,1.4c-4.6,3.7-9.9-1.4-11.3-0.3c-4.4,3.7,5,5-3.6,12.6c-0.8,0.7-1.5,1.3-2,1.7l-0.1-0.1l-0.5,0.5
		c-0.4,0.3-0.6,0.5-0.6,0.5l0.1,0.1l-3,3.3c0,0-9.4-4.5-25.1-15.4c-1.4-1-4-5.5-6.7-8c-2.2-2.1-5.2-3-6.8-1.4
		c-1.4,1.5-3.1,6.7,1.4,10.9c3.3,3.1,7.9,2.8,11,4.1l21.7,14.2c8.1,7.4,6.4,10.1,7.6,13.7l1.2,0.5c3-6.8-0.3-8.7,0.8-12.3
		c0.1-0.7,1.9-2.4,3.2-3.7c1-0.7,4.3-3.5,5.7-4.7c1.8-1.6,0.5-3.5,0.3-6.1c4.6,0.2,5.9,2.5,7.3-0.3c0.7-0.6,5.5-4.5,6.4-5.3
		c1.2-0.8,3.3-2,5.8-3.5c1.2-1.2,0-4.4,1.6-5.3c1-0.6,6.3,0.9,6.3,0.9c0,0,0.1-0.1,0.1-0.2c2.3-1.9,0.7-1.8,2.3-5.9
		c2.3,0.4,5.5,1.8,6.6,1c2.9-1.9,1.6-3.5,2-6.6c7.6,2.9,9.2,0.5,10.8-0.3l0.4-0.3c2.1-0.7,8-2.9,10.4-3.8c1.4,5.9-0.3,6.7,1.2,10
		c3.3-2.6,4.6-8.9,4.4-12c2-0.8,3.8-1.4,5-1.8c1-0.2,4.6-1,5.1-1.2c2.1-0.4,4.3,2.7,5.8,2.4c7.1-1.7,4.9-16.1,3.6-20.6
		C240.3,66.3,241,68,238,60.3z M166.8,135.2c-1.6-2-3.4-2.5-5.8-0.5c-2.4,1.9-2.1,4.9-1,6.2c1.5,1.8,5.1,1.9,6.2,1
		C168.7,139.8,168.1,136.8,166.8,135.2z M175.4,127.8c-1.2-1.5-3.2-2.7-5.8-0.5c-2.3,1.9-2.2,4.8-1,6.2c2.5,3,5.7,1.5,5.7,1.5
		C175.9,133.6,177.8,130.6,175.4,127.8z M485.1,170.2c-1.6-2.5-4.4-2.8-6-1.8c-3.3,2.1-2.2,5.4-2.2,5.4c1.2,1.8,3.9,3.9,6.9,2
		C485.6,174.8,487,173.1,485.1,170.2z M479.1,161.9c-1.7-2.6-4.6-2.7-6-1.8c-2,1.3-2.6,4.8-1.8,6c1.7,2.6,4.8,2.6,6.6,1.4
		C480.1,166.1,480.7,164.4,479.1,161.9z M461.5,173.2c-1.9,1.3-2.8,4-1.5,5.9c1.4,2.1,0.8,2,0.3,3c-0.4,0.9-2,1.5-2.4,1.6
		c-0.3-0.6-0.5-1.2-0.8-1.8c-1-2.6-1.6-3.5-2.7-5.2c-2.4-4.4-5.3-8.6-7.4-11.6l0.2-0.1l-2-2.5c-1-1.3-1.6-2-1.6-2
		c0,0-0.1-0.1-0.1-0.1c0.5-0.8,6.1-9.4,18.3-23c1.2-1.3,6-3.3,8.8-5.7c2.4-1.9,3.6-4.8,2.2-6.5c-1.3-1.6-6.2-3.9-11.1,0.1
		c-3.5,2.9-3.7,7.5-5.4,10.4l-16.8,19.8c-8.3,7.1-10.8,5.1-14.5,5.8l-0.7,1.1c6,3.6,8.4,1.2,11.5,2c2.9,2.9,6.2,7.4,8.9,11.5
		l-0.2,0.1c0,0,0.6,0.9,2.6,4c5,7.7,3.3,8,4.2,9.4c2.3,3.5,9.9-0.4,11.2-1.2c6.9-4.4,8.2-11.3,7.1-13.1
		C467.2,172,463.4,172,461.5,173.2z"/>
	

	
	<g>
		<path class="white" d="M75.6,417.3c-0.7-1.2-4.7-2.3,12.5-13c13.3-8.3,23.4-10.9,25.6-12.3c1.8-1.1,3.1-1.5,2.1-3
			c-2.6-4.2-14.1-7.4-14.7-8.4c-0.3-0.6-0.7-0.7,0.9-1.7c1.9-1.2,10.2-4.1,12.5-4.3c1.4-0.1,8.6,6.6,13.6,14.6
			c6,9.6,8.7,19.7,5.9,21.5c-2.6,1.6-10.1,2.2-10.5,1.6c-0.6-1,2.8-6.5,0.1-10.8c-2.3-3.6-14,2.9-19.5,6.3
			c-15.3,9.5-20.8,17.4-21.9,18.2c-1.3,0.8-2.3-1.6-2.8-2.3L75.6,417.3z"/>
		<path class="white" d="M115,466.9c-0.4-0.5-2-1.7-1.3-2.5c1.4-1.3,10.2-2.3,16-7.9c2.3-2.2,1.1-5.2-1.1-7.5
			c-4.4-4.6-12.3-11.1-18.1-5.6c-4,3.9-5.1,11.3-5.9,12c-0.3,0.3-0.6,0-1.3-0.7l-6.9-7.2c-2.5-2.6,1.4-7.7,7.9-14
			c21.7-20.9,46.2-15.6,48.3-13.3c1.6,1.7,6.9,21.7-16.5,44.3c-13.5,13-14.2,9.6-15.7,8L115,466.9z M124.6,432
			c-0.6,0.6-0.6,1.3,0,1.9c0.9,0.9,6.9,4.6,11.2,9c1.7,1.8,2.8,2.3,4.2,1c3.1-3,6.1-13.1,4.2-15C141.6,426.1,128.3,428.5,124.6,432z
			"/>
		<path class="white" d="M148.7,463.2c8.9-14,25.8-23.5,40-14.5c5.1,3.2,11.7,10.4,7.6,16.9c-2.2,3.4-5.7,3.9-9.5,1.5
			c-2.4-1.5,4.3-5-3.2-9.8c-9.4-5.9-19.4,2.6-24.6,10.9c-4.1,6.5-6.6,14.4,1.2,19.4c3.7,2.3,8.7,3.3,11.3-0.9c3-4.8-1.4-8.2-0.4-9.7
			c0.5-0.8,13,2,13.7,2.4c1.2,0.7-6.6,16.1-7.8,17.9c-4.8,7.8-14.7,6.4-22.1,1.6C141.2,490.2,140.4,476.4,148.7,463.2z"/>
		<path class="white" d="M213.9,524.1c-0.7-0.2-2.5-0.7-2.2-1.8c0.1-0.3,0.3-0.6,0.5-0.9c4.3-5.3,8.4-10.9,10.6-17.6
			c1.5-4.5,0.2-6.6-4.2-8.1c-6.7-2.2-15-1.5-17.6,6.3c-1.6,4.8-2.5,10.3-2.1,15.3c0,0.3,0,0.8-0.1,1.1c-0.3,1-1.8,0.1-2.3-0.1
			l-9.8-3.3c-1.9-0.6,4.6-19.8,5.5-22.7c1.6-4.8,12.5-32.9,15.7-31.8l9.1,3c0.4,0.1,2.1,0.5,1.8,1.3c-0.3,0.8-8.1,9-10.4,16.1
			c-0.6,1.6-0.5,3.4,0.5,3.8c2.1,0.7,2.7-1.3,11.8,1.7c3.3,1.1,5.6,2.7,6.5-0.1c2.1-6.3-0.6-17.8-0.3-18.6c0.3-0.9,2.2,0,2.6,0.1
			l8.7,3c2.5,0.8-0.6,21.1-5.4,35.3c-1,3.2-7.4,22-9.5,21.3L213.9,524.1z"/>
		<path class="white" d="M247,531.2c-1.7-0.2-4,0.8-0.5-25.3c4.5-34.3,8-32.6,9.2-32.5l7.5,1.1c0.9,0.1,2.6,0.1,2.5,1.4
			c-0.1,0.7-5.3,11.9-7.1,25.3c-2.4,17.8-0.4,29.7-0.6,30.7c-0.1,0.7-0.5,0.7-1.1,0.7l-1.4-0.2L247,531.2z"/>
		<path class="white" d="M290.1,533.6c-1.4,0.1-4.3,3-5.2-17.3c-0.8-15.6,1.9-25.7,1.7-28.3c-0.1-2.1,0.2-3.4-1.6-3.3
			c-5,0.3-13.3,8.8-14.5,8.8c-0.6,0-1,0.3-1.1-1.6c-0.1-2.2,1.4-11,2.3-13c0.6-1.3,10-4.4,19.5-4.7c11.3-0.6,21.4,2,21.6,5.3
			c0.2,3.1-2.9,9.9-3.7,9.9c-1.2,0.1-4.4-5.6-9.4-5.4c-4.3,0.2-4.4,13.6-4,20c0.8,18,5.1,26.7,5.1,27.9c0.1,1.6-2.4,1.3-3.4,1.3
			L290.1,533.6z"/>
		<path class="white" d="M346.1,526.1c-13.6,4-21.8-4.2-25.2-15.9c-5-17.3-1-39.4,11.6-43.1c12.6-3.7,27.9,12.8,33,30.1
			c3.4,11.6,0.9,23-12.6,27L346.1,526.1z M354.1,498.9c-4.4-14.9-13.9-22.2-18.5-20.9c-4.5,1.3-8.6,12.7-4.3,27.6
			c2.3,7.9,7.4,9.7,14.6,7.6C353.1,511,356.4,506.8,354.1,498.9z"/>
		<path class="white" d="M388.1,442c1.2-0.7,4.2-1.1,16.9,20.7c10.4,17.8,11.1,31.7-1.8,39.3c-11.4,6.6-23.5,1.9-34-16.2
			c-11.3-19.4-11.9-25.8-11.1-26.2l8.4-4.9c0.6-0.3,1.3-0.8,1.8,0c0.8,1.4,1.5,9.6,9.6,23.5c8.1,13.7,15.5,15.1,19,13
			c3-1.8,9.1-6.4-0.5-23c-9.2-15.8-15.3-19.5-16-20.6c-0.6-1,1.2-1.8,1.8-2.1L388.1,442z"/>
		<path class="white" d="M410.3,422.3c9.5-9,16.8-6.1,20.9-1.8c7.8,8.2,2.5,17.9,3.9,19.3c1.4,1.4,16.9-0.6,28.3,11.3
			c0.5,0.6,0.4,0.9-0.6,1.9l-5.7,5.5c-0.9,0.9-2.3,2.5-3.1,1.7c-5.5-5.8-19.3-12.2-22.3-9.3c-1.5,1.4-3.2,7-0.5,9.9
			c3.7,3.8,12.2,9,12.5,9.3c0.8,0.9-0.7,1.9-1.2,2.3l-5.9,5.6c-1.3,1.2-1.8,3.6-20-15.4c-23.9-25.1-20.4-26.7-19.5-27.5L410.3,422.3
			z M423.8,429.2c-3-3.2-7.1-1.5-9.9,1.1c-4.6,4.4-5.1,8,3.4,16.7c1,1.1,3,3.1,4.5,1.6C423.5,447.1,428.2,433.9,423.8,429.2z"/>
		<path class="white" d="M441.5,397.2c-1.9,3-2.9,7.7,0.5,9.9c4.2,2.8,9.7-1.9,12.9-4.5c12.1-9.7,19.7-8.3,25.3-4.7
			c6.8,4.4,12,14.8,4,27.2c-5.4,8.3-15.4,13.9-24.8,7.8c-5-3.3-6-8.2-5.6-8.8c0.7-1,11.9,7.7,20.2-4.9c2.9-4.5,3.5-9.6-0.2-12
			c-4.3-2.8-9.5,1.3-12.8,4.1c-12.4,10.2-19.1,7.9-24.1,4.6c-4.9-3.2-11.1-12-3.4-24c5.6-8.6,14.1-11.6,15.7-10.5
			c1.7,1.1,5,7.6,3.9,9.2C452.2,392.3,445.5,391.1,441.5,397.2z"/>
	</g>
	<rect x="311.8" y="330.5" class="st1" width="18.5" height="57.3"/>
	<path class="white" d="M495.7,304.2l0.7-3.9C495.9,301.9,495.6,303.4,495.7,304.2z M489.8,295.6c0,0-0.1-2.9,1-6.6
		C490.1,291,489.6,293.2,489.8,295.6z M508.6,300.3l0.8,3.9C509.4,303.4,509.1,301.9,508.6,300.3z M515.2,295.6
		c0.1-2.5-0.3-4.6-1-6.6C515.2,292.7,515.2,295.6,515.2,295.6z M540.8,271.7c0,0-12.5-14.7-32.8-2.4c0,0-2.3-3.9,3.4-6.3l-2.6-0.9
		l8.1-3.6l-6,0.8l8.8-5.6l-8.4,2.5c0,0,4.3-6.1,10.3-7.4c0,0-14.7,1.6-17.9,15.2l-1.1,1l-1-1c-3.2-13.6-17.9-15.2-17.9-15.2
		c5.9,1.3,10.2,7.4,10.2,7.4l-8.4-2.5l8.7,5.6l-6-0.8l8.1,3.6l-2.6,0.9c5.7,2.4,3.4,6.3,3.4,6.3c-20.3-12.2-32.8,2.4-32.8,2.4
		l6.3-4.5l-2.6,5l4.5-3.7l0.9,3.5c5.6-7.5,5.8-0.8,5.8-0.8c1.7-4.9,4.1,0.5,4.1,0.5c3.8-7.8,4.2,1,4.2,1c3.4-6.2,4.1,0,4.1,0
		c-12.6,13.6-4.6,29.6-4.6,29.6c-2.3-17.9,9.8-23.1,9.8-23.1c-3.3,2.9-5.1,6.7-5.9,9.9c2.2-6,7.3-9.1,7.3-9.1l-0.5,3.7
		c-2.7,0.3-4.8,6.4-4.8,6.4l3.1-1l-1.1,6.9l3.5-5.7l-1.9,9.9c1-3.2,2.7-7,2.7-7l1.5,5.5L500,302l0.8,7.2l0.4,4.1l-1,3.7l0.3,3.1
		l1,5.1l-0.8,5.8l-0.9,4.3c-2.8,3.5-0.8,9.4-0.8,9.4c0.7,1.6,2.1,1.4,3.5,0.6c1.4,0.8,2.8,0.9,3.5-0.6c0,0,2-5.9-0.8-9.4l-0.9-4.3
		l-0.8-5.8l1-5.1l0.3-3.1l-1-3.7l0.4-4.1l0.8-7.2l-0.6-3.2l1.5-5.5c0,0,1.7,3.7,2.7,7l-1.9-9.9l3.5,5.7l-1.1-6.9l3,1
		c0,0-2.1-6-4.7-6.4l-0.6-3.7c0,0,5.2,3.1,7.4,9.1c-0.9-3.2-2.6-7-5.9-9.9c0,0,12.1,5.2,9.8,23.1c0,0,8-16-4.6-29.6
		c0,0,0.6-6.2,4.1,0c0,0,0.5-8.8,4.2-1c0,0,2.3-5.4,4.1-0.5c0,0,0.2-6.7,5.8,0.8l0.8-3.5l4.5,3.7l-2.6-5L540.8,271.7z"/>
	<path class="white" d="M56.3,305.9L57,302C56.5,303.6,56.2,305.1,56.3,305.9z M50.4,297.4c0,0-0.1-2.9,1-6.6
		C50.7,292.7,50.3,294.9,50.4,297.4z M69.2,302l0.8,3.9C70,305.1,69.7,303.6,69.2,302z M75.8,297.4c0.1-2.5-0.2-4.7-1-6.6
		C75.8,294.4,75.8,297.4,75.8,297.4z M101.4,273.4c0,0-12.5-14.6-32.8-2.4c0,0-2.3-4,3.4-6.3l-2.6-0.9l8.1-3.6l-6,0.7l8.7-5.6
		l-8.4,2.5c0,0,4.4-6.1,10.3-7.4c0,0-14.6,1.6-17.9,15.2l-1.1,0.9l-1-0.9c-3.2-13.6-17.9-15.2-17.9-15.2c5.9,1.3,10.2,7.4,10.2,7.4
		l-8.4-2.5l8.7,5.6l-5.9-0.7l8.1,3.6l-2.6,0.9c5.7,2.3,3.4,6.3,3.4,6.3c-20.3-12.3-32.8,2.4-32.8,2.4l6.3-4.5l-2.7,5.1l4.6-3.7
		l0.8,3.5c5.5-7.5,5.8-0.8,5.8-0.8c1.8-4.9,4.1,0.5,4.1,0.5c3.7-7.8,4.2,1,4.2,1c3.4-6.2,4.1-0.1,4.1-0.1
		C39.5,288,47.5,304,47.5,304c-2.3-17.8,9.8-23.1,9.8-23.1c-3.3,2.9-5,6.7-5.9,10c2.2-6,7.4-9.1,7.4-9.1l-0.5,3.7
		c-2.7,0.4-4.8,6.4-4.8,6.4l3.1-1l-1.1,6.9l3.5-5.7L57,302c1-3.2,2.6-7,2.6-7l1.5,5.5l-0.6,3.2l0.8,7.2l0.4,4.1l-1,3.8l0.3,3l1,5.1
		l-0.8,5.8l-0.9,4.2c-2.8,3.5-0.8,9.5-0.8,9.5c0.7,1.6,2.1,1.4,3.5,0.6c1.4,0.8,2.8,0.9,3.5-0.6c0,0,2-5.9-0.8-9.5l-1-4.2l-0.7-5.8
		l1-5.1l0.3-3l-1-3.8l0.4-4.1l0.8-7.2l-0.6-3.2l1.5-5.5c0,0,1.7,3.8,2.7,7l-1.9-10l3.5,5.7l-1.1-6.9l3.1,1c0,0-2.1-6-4.7-6.4
		l-0.5-3.7c0,0,5.1,3.1,7.4,9.1c-0.9-3.2-2.6-7-5.9-10c0,0,12.1,5.3,9.8,23.1c0,0,8-16-4.6-29.7c0,0,0.6-6.1,4.1,0.1
		c0,0,0.4-8.8,4.1-1c0,0,2.4-5.4,4.1-0.5c0,0,0.2-6.7,5.8,0.8l0.8-3.5l4.6,3.7l-2.6-5.1L101.4,273.4z"/>

</g>
</svg>
