<?xml version="1.0" encoding="iso-8859-1"?>
<!-- Generator: Adobe Illustrator 19.0.0, SVG Export Plug-In . SVG Version: 6.00 Build 0)  -->
<svg xmlns="http://www.w3.org/2000/svg" xmlns:xlink="http://www.w3.org/1999/xlink" version="1.1" id="Layer_1" x="0px" y="0px" viewBox="0 0 512 512" style="enable-background:new 0 0 512 512;" xml:space="preserve" width="512px" height="512px">
<g>
	<g>
		<g>
			<path d="M506.107,272.719l-9.78-4.74v-48.551c0-11.523-9.375-20.898-20.898-20.898h-31.347c-11.523,0-20.898,9.375-20.898,20.898     v12.915l-15.673-7.609v-36.653c0-11.523-9.375-20.898-20.898-20.898h-31.347c-11.523,0-20.898,9.375-20.898,20.898v1.066     l-15.673-7.609V83.592c0-16.557-6.44-35.549-17.225-50.805C288.901,15.013,272.754,5.224,256,5.224s-32.901,9.789-45.469,27.562     c-10.785,15.256-17.225,34.248-17.225,50.805v97.947l-15.673,7.609v-1.066c0-11.523-9.375-20.898-20.898-20.898h-31.347     c-11.523,0-20.898,9.375-20.898,20.898v36.654l-15.673,7.609v-12.916c0-11.523-9.375-20.898-20.898-20.898H36.571     c-11.523,0-20.898,9.375-20.898,20.898v48.549l-9.782,4.743C2.288,274.466,0,278.118,0,282.122v73.143     c0,3.641,1.895,7.02,5.003,8.918c1.668,1.018,3.555,1.531,5.446,1.531c1.634,0,3.272-0.383,4.773-1.154l178.084-91.449v96.94     l-78.265,44.025c-3.291,1.85-5.327,5.332-5.327,9.107v52.245c0,3.486,1.738,6.742,4.635,8.682     c2.894,1.939,6.566,2.307,9.792,0.981l78.892-32.472c17.641,35.948,35.439,54.156,52.967,54.156s35.326-18.208,52.967-54.157     l78.892,32.472c3.225,1.326,6.897,0.959,9.792-0.981c2.896-1.94,4.634-5.196,4.634-8.682v-52.245     c0-3.775-2.035-7.257-5.327-9.107l-78.264-44.024v-96.94l178.084,91.448c1.503,0.771,3.139,1.154,4.773,1.154     c1.891,0,3.778-0.513,5.446-1.531c3.108-1.898,5.003-5.277,5.003-8.918v-73.143C512,278.118,509.712,274.465,506.107,272.719z      M125.388,188.082h31.347v11.221l-31.347,15.266V188.082z M36.571,219.429h31.347v23.078l-31.347,15.296V219.429z      M20.898,338.154V288.67l10.95-5.309l52.441-25.587l35.746-17.353l52.55-25.592l20.721-10.059v44.85L20.898,338.154z      M381.388,429.295v30.533l-73.655-30.317c-5.201-2.14-11.169,0.221-13.494,5.346c-11.052,24.366-20.67,37.912-27.79,44.821     v-87.841h-20.898v87.841c-7.12-6.909-16.738-20.455-27.79-44.821c-1.744-3.844-5.537-6.136-9.52-6.136     c-1.327,0-2.674,0.254-3.974,0.789l-73.655,30.318v-30.533l62.694-35.265v13.48h20.898v-31.347V83.592     c0-12.213,5.131-27.058,13.391-38.741c8.416-11.902,18.768-18.729,28.404-18.729c9.636,0,19.989,6.826,28.404,18.729     c8.26,11.683,13.391,26.528,13.391,38.741v292.571v31.347h20.898v-13.48L381.388,429.295z M444.082,219.429h31.347v38.377     l-31.347-15.298V219.429z M355.265,188.082h31.347v26.487l-31.347-15.266V188.082z M491.103,338.154L491.103,338.154     L318.694,249.62v-44.851l20.711,10.054l52.573,25.602l35.716,17.337l52.476,25.609l10.934,5.298V338.154z" fill="#f59e07"/>
			<path d="M256,41.796c-24.795,0-31.347,27.34-31.347,41.796h20.898c0-0.062,0.089-6.408,2.076-12.37     c2.843-8.528,6.578-8.528,8.373-8.528c9.866,0,10.448,20.722,10.449,20.898h20.898C287.347,69.136,280.794,41.796,256,41.796z" fill="#f59e07"/>
			<rect x="245.551" y="109.714" width="20.898" height="229.878" fill="#f59e07"/>
		</g>
	</g>
</g>
<g>
</g>
<g>
</g>
<g>
</g>
<g>
</g>
<g>
</g>
<g>
</g>
<g>
</g>
<g>
</g>
<g>
</g>
<g>
</g>
<g>
</g>
<g>
</g>
<g>
</g>
<g>
</g>
<g>
</g>
</svg>
