<?xml version="1.0" encoding="iso-8859-1"?>
<!-- Generator: Adobe Illustrator 19.0.0, SVG Export Plug-In . SVG Version: 6.00 Build 0)  -->
<svg xmlns="http://www.w3.org/2000/svg" xmlns:xlink="http://www.w3.org/1999/xlink" version="1.1" id="Layer_1" x="0px" y="0px" viewBox="0 0 512 512" style="enable-background:new 0 0 512 512;" xml:space="preserve" width="512px" height="512px">
<g>
	<g>
		<g>
			<path d="M412.735,0H67.918c-5.77,0-10.449,4.678-10.449,10.449v491.102c0,5.77,4.679,10.449,10.449,10.449h344.816     c23.046,0,41.796-18.75,41.796-41.796V41.796C454.531,18.75,435.781,0,412.735,0z M114.939,491.102H78.367V20.898h36.571V491.102     z M433.633,470.204c0,11.523-9.375,20.898-20.898,20.898H135.837V20.898h276.898c11.523,0,20.898,9.375,20.898,20.898V470.204z" fill="#f59e07"/>
			<path d="M339.878,152.245c-17.289-10.733-37.226-16.408-57.756-16.408c-20.495,0-40.468,5.675-57.753,16.406     c-21.884,13.576-38.325,34.402-46.299,58.645c-3.758,11.041-5.662,22.704-5.662,34.663c0,11.949,1.905,23.614,5.663,34.665     c7.974,24.243,24.413,45.068,46.295,58.642c17.288,10.733,37.261,16.408,57.756,16.408s40.467-5.675,57.754-16.406     c21.871-13.568,38.31-34.393,46.298-58.642c3.757-11.052,5.662-22.714,5.662-34.667c0-11.962-1.905-23.624-5.663-34.666     C378.186,186.634,361.747,165.811,339.878,152.245z M219.429,308.451c-6.247-6.229-11.536-13.34-15.664-21.104h15.664V308.451z      M219.429,266.449h-23.621c-1.657-6.755-2.501-13.755-2.501-20.898c0-7.149,0.843-14.149,2.5-20.898h23.622V266.449z      M219.429,203.755h-15.664c4.128-7.764,9.417-14.874,15.664-21.103V203.755z M271.673,333.745     c-10.991-1.29-21.617-4.604-31.347-9.803v-36.594h31.347V333.745z M271.673,266.449h-31.347v-41.796h31.347V266.449z      M271.673,203.755h-31.347V167.16c9.716-5.191,20.331-8.502,31.347-9.797V203.755z M323.918,323.941     c-9.729,5.198-20.355,8.512-31.347,9.803v-46.398h31.347V323.941z M323.918,266.449h-31.347v-41.796h31.347V266.449z      M323.918,203.755h-31.347V157.35c10.978,1.285,21.603,4.601,31.347,9.81V203.755z M344.816,182.656     c6.243,6.227,11.529,13.337,15.659,21.1h-15.659V182.656z M344.816,308.447v-21.1h15.659     C356.347,295.111,351.06,302.22,344.816,308.447z M368.437,266.449h-23.621v-41.796h23.622c1.657,6.749,2.5,13.749,2.5,20.898     C370.939,252.694,370.096,259.694,368.437,266.449z" fill="#f59e07"/>
			<path d="M224.653,109.714h114.939c11.523,0,20.898-9.375,20.898-20.898V67.918c0-11.523-9.375-20.898-20.898-20.898H224.653     c-11.523,0-20.898,9.375-20.898,20.898v20.898C203.755,100.339,213.13,109.714,224.653,109.714z M224.653,67.918h114.939     l0.001,20.898h-114.94V67.918z" fill="#f59e07"/>
			<rect x="224.653" y="391.837" width="94.041" height="20.898" fill="#f59e07"/>
			<rect x="224.653" y="433.633" width="31.347" height="20.898" fill="#f59e07"/>
			<rect x="266.449" y="433.633" width="31.347" height="20.898" fill="#f59e07"/>
			<rect x="308.245" y="433.633" width="31.347" height="20.898" fill="#f59e07"/>
		</g>
	</g>
</g>
<g>
</g>
<g>
</g>
<g>
</g>
<g>
</g>
<g>
</g>
<g>
</g>
<g>
</g>
<g>
</g>
<g>
</g>
<g>
</g>
<g>
</g>
<g>
</g>
<g>
</g>
<g>
</g>
<g>
</g>
</svg>
