<?xml version="1.0" encoding="UTF-8" standalone="no"?>
<!-- Created with Inkscape (http://www.inkscape.org/) -->

<svg
   xmlns:dc="http://purl.org/dc/elements/1.1/"
   xmlns:cc="http://creativecommons.org/ns#"
   xmlns:rdf="http://www.w3.org/1999/02/22-rdf-syntax-ns#"
   xmlns:svg="http://www.w3.org/2000/svg"
   xmlns="http://www.w3.org/2000/svg"
   xmlns:sodipodi="http://sodipodi.sourceforge.net/DTD/sodipodi-0.dtd"
   xmlns:inkscape="http://www.inkscape.org/namespaces/inkscape"
   width="751.59363"
   height="219.3589"
   id="svg2"
   version="1.1"
   inkscape:version="0.48.2 r9819"
   sodipodi:docname="Logo Qatar Airways.svg">
  <defs
     id="defs4" />
  <sodipodi:namedview
     id="base"
     pagecolor="#ffffff"
     bordercolor="#666666"
     borderopacity="1.0"
     inkscape:pageopacity="0.0"
     inkscape:pageshadow="2"
     inkscape:zoom="0.98994949"
     inkscape:cx="209.47099"
     inkscape:cy="87.743145"
     inkscape:document-units="px"
     inkscape:current-layer="layer1"
     showgrid="false"
     fit-margin-bottom="5"
     fit-margin-top="5"
     fit-margin-right="5"
     fit-margin-left="5"
     inkscape:window-width="1366"
     inkscape:window-height="706"
     inkscape:window-x="-8"
     inkscape:window-y="-8"
     inkscape:window-maximized="1" />
  <metadata
     id="metadata7">
    <rdf:RDF>
      <cc:Work
         rdf:about="">
        <dc:format>image/svg+xml</dc:format>
        <dc:type
           rdf:resource="http://purl.org/dc/dcmitype/StillImage" />
        <dc:title></dc:title>
      </cc:Work>
    </rdf:RDF>
  </metadata>
  <g
     inkscape:label="Calque 1"
     inkscape:groupmode="layer"
     id="layer1"
     transform="translate(-199.21576,-654.29517)">
    <g
       id="g3074"
       transform="matrix(1.5195179,0,0,1.5195179,-106.09373,-342.51562)">
      <g
         inkscape:label="Calque 1"
         id="layer1-7"
         transform="translate(-114.99106,232.00842)">
        <g
           style="fill:#000000"
           id="g38795"
           transform="matrix(9.042141,0,0,-9.042141,-6406.7433,5072.2213)">
          <g
             id="g39995"
             transform="matrix(0.49013596,0,0,0.49013596,346.68361,255.47663)">
            <g
               transform="matrix(1.0919655,0,0,1.0919655,862.35002,498.18103)"
               id="g36252"
               style="fill:#64003c;fill-opacity:1">
              <path
                 id="path36254"
                 style="fill:#64003c;fill-opacity:1;fill-rule:nonzero;stroke:none"
                 d="m 0,-0.24526189 -0.864,0 c 0,0 -0.116,0.525 0.196,0.726 0.314,0.204 0.668,0.36 0.668,0.36 l 0,-1.086 z M 4.094,1.7187381 c 0,0 -0.524,-0.298 -0.857,-0.588 C 2.908,0.84073811 3.306,0.73173811 3.306,0.73173811 l 0,-0.977 -2.505,0 0,3.41499999 c 0,0 -0.913,-0.83 -0.997,-0.942 -0.09,-0.115 0.216,-0.222 0.216,-0.222 l -0.051,-0.324 c 0,0 -0.364,-0.187 -0.805,-0.481 -0.439,-0.29099999 -0.762,-0.66399999 -0.762,-0.92099999 0,-0.257 -0.112,-1.271 -0.112,-1.271 l 5.804,0 0,2.70999999 z m -5.183,1.25 c 0.286,0 0.487,0.112 0.487,0.335 0,0.227 -0.134,0.384 -0.487,0.384 -0.315,0 -0.399,-0.136 -0.399,-0.384 0,-0.247 0.109,-0.335 0.399,-0.335 m 1.067,0 c 0.288,0 0.483,0.112 0.483,0.335 0,0.227 -0.132,0.384 -0.483,0.384 -0.315,0 -0.399,-0.136 -0.399,-0.384 0,-0.247 0.11,-0.335 0.399,-0.335 m 1.618,-4.255 c -0.313,0 -0.399,-0.132 -0.399,-0.381 0,-0.245 0.111,-0.336 0.399,-0.336 0.286,0 0.487,0.112 0.487,0.336 0,0.228 -0.131,0.381 -0.487,0.381 m 1.108,0 c -0.312,0 -0.397,-0.132 -0.397,-0.381 0,-0.245 0.112,-0.336 0.397,-0.336 0.292,0 0.49,0.112 0.49,0.336 0,0.228 -0.133,0.381 -0.49,0.381 m 12.508,4.322 c 0.289,0 0.49,0.109 0.49,0.334 0,0.224 -0.134,0.383 -0.49,0.383 -0.312,0 -0.397,-0.135 -0.397,-0.383 0,-0.248 0.111,-0.334 0.397,-0.334 m 1.108,0 c 0.286,0 0.487,0.109 0.487,0.334 0,0.224 -0.134,0.383 -0.487,0.383 -0.313,0 -0.397,-0.135 -0.397,-0.383 0,-0.248 0.108,-0.334 0.397,-0.334 m 3.061,-0.093 c -0.155,-0.133 -0.11,-0.294 0.088,-0.272 l 0,-3.66799999 0.822,0 0,4.56699999 c 0,0 -0.756,-0.493 -0.91,-0.627 m -3.304,-2.05699999 -0.533,0 c 0,0.28899999 0.533,0.44799999 0.533,0.44799999 l 0,-0.44799999 z m -3.504,-0.606 c 0,-0.133 -0.007,-0.35 -0.012,-0.525 l -4.647,0 0,0.808 c 0.122,0.311 0.325,0.347 0.643,0.347 l 3.395,0 c 0.735,0 0.621,-0.382 0.621,-0.63 m 5.433,2.39599999 0,-2.92099999 -1.105,0 0,2.65199999 c 0,0 -0.228,-0.085 -0.537,-0.221 -0.308,-0.138 -1.42,-0.584 -1.42,-1.18899999 l 0,-0.698 1.133,0 0,-0.544 -2.689,0 c 0.003,0.128 0.005,0.317 0.005,0.593 0,0.86899999 -0.751,1.34399999 -1.417,1.34399999 l -3.109,0 c -0.543,0 -0.806,-0.131 -0.953,-0.279 l 0,2.248 c 0,0 -0.486,-0.337 -0.841,-0.604 -0.357,-0.27 0,-0.449 0,-0.449 l 0,-2.85299999 -1.018,0 -0.023,2.44799999 c 0,0 -0.709,-0.511 -0.911,-0.666 -0.199,-0.156 -0.089,-0.296 0.134,-0.296 0,0 -0.041,-1.80699999 -0.041,-2.23199999 0,-0.43000001 -0.36,-0.92000001 -1.115,-0.69800001 0,0 -0.238,-0.045 -0.04,-0.223 0.199,-0.179 0.438,-0.315 0.706,-0.315 0.267,0 1.245,0.183 1.245,1.23600001 l 12.814,0 0,4.56299999 c 0,0 -0.754,-0.491 -0.908,-0.624 -0.157,-0.135 -0.112,-0.296 0.09,-0.272"
                 inkscape:connector-curvature="0" />
            </g>
            <g
               style="fill:#64003c;fill-opacity:1"
               transform="matrix(0.48821615,0,0,0.48821615,432.9537,314.66915)"
               id="g39963">
              <g
                 style="fill:#64003c;fill-opacity:1"
                 transform="matrix(2.2429264,0,0,2.2429264,-842.82659,-702.76758)"
                 id="g39983">
                <g
                   transform="translate(723.2207,493.8072)"
                   id="g36284"
                   style="fill:#64003c;fill-opacity:1">
                  <path
                     id="path36286"
                     style="fill:#64003c;fill-opacity:1;fill-rule:evenodd;stroke:none"
                     d="m 0,0 c 0,5.23 2.802,6.641 4.919,6.641 3.403,0 4.877,-2.823 4.877,-5.831 0,-1.723 -0.207,-3.343 -1.059,-4.65 C 7.887,-5.148 6.476,-5.937 4.939,-5.937 1.099,-5.937 0,-2.283 0,0 m 10.335,-10.689 c 0.623,0.436 1.599,0.975 2.305,1.287 l -4.692,2.905 c 2.885,1.018 4.692,3.591 4.692,7.099 0,4.98 -3.799,7.098 -7.679,7.098 -4.194,0 -7.805,-2.325 -7.805,-7.597 0,-1.12 0.249,-3.237 1.992,-5.002 1.807,-1.826 3.944,-2.096 5.75,-2.096 0.229,0 0.456,0 0.685,0.021 l 4.752,-3.715"
                     inkscape:connector-curvature="0" />
                </g>
                <g
                   transform="translate(745.7496,492.8943)"
                   id="g36288"
                   style="fill:#64003c;fill-opacity:1">
                  <path
                     id="path36290"
                     style="fill:#64003c;fill-opacity:1;fill-rule:evenodd;stroke:none"
                     d="m 0,0 c -0.643,-0.042 -1.265,-0.084 -1.91,-0.084 -0.727,0 -1.431,0.062 -2.158,0.084 L -1.951,5.105 0,0 z m 2.346,-5.791 c 0.372,0.02 0.954,0.124 1.535,0.124 0.581,0 1.308,-0.104 1.619,-0.124 C 4.565,-3.778 3.196,-0.644 2.408,1.161 1.659,2.906 0.415,5.81 -0.581,8.655 -0.809,8.591 -1.017,8.551 -1.245,8.551 c -0.25,0 -0.457,0.04 -0.686,0.104 -0.497,-1.703 -1.701,-4.401 -3.797,-9.092 l -2.408,-5.354 c 0.29,0.041 0.581,0.124 0.935,0.124 0.331,0 0.726,-0.083 0.996,-0.124 0.331,1.183 0.997,2.906 1.659,4.504 0.831,0.041 1.661,0.082 2.492,0.082 0.892,0 1.764,-0.041 2.655,-0.082 l 0.873,-2.201 0.872,-2.303"
                     inkscape:connector-curvature="0" />
                </g>
                <g
                   transform="translate(757.5125,497.6259)"
                   id="g36292"
                   style="fill:#64003c;fill-opacity:1">
                  <path
                     id="path36294"
                     style="fill:#64003c;fill-opacity:1;fill-rule:evenodd;stroke:none"
                     d="m 0,0 c 0,0.789 0.02,1.578 0.042,2.324 1.432,0 2.906,-0.021 4.13,-0.145 -0.063,0.332 -0.104,0.519 -0.104,0.747 0,0.167 0.041,0.437 0.104,0.788 C 2.179,3.611 0.353,3.59 -1.37,3.59 c -1.598,0 -3.902,0.021 -5.542,0.124 0.063,-0.248 0.104,-0.518 0.104,-0.766 0,-0.25 -0.041,-0.52 -0.104,-0.769 1.06,0.105 3.052,0.145 3.238,0.145 l 1.038,0 C -2.615,1.515 -2.595,0.789 -2.595,0.02 l 0.021,-5.79 c 0,-1.577 -0.124,-3.175 -0.207,-4.753 0.747,0.083 1.059,0.125 1.411,0.125 0.25,0 0.914,-0.062 1.515,-0.125 C 0.083,-9.942 0,-9.257 0,-7.68 L 0,0"
                     inkscape:connector-curvature="0" />
                </g>
                <g
                   transform="translate(769.2734,492.8943)"
                   id="g36296"
                   style="fill:#64003c;fill-opacity:1">
                  <path
                     id="path36298"
                     style="fill:#64003c;fill-opacity:1;fill-rule:evenodd;stroke:none"
                     d="m 0,0 c -0.644,-0.042 -1.267,-0.084 -1.91,-0.084 -0.727,0 -1.433,0.062 -2.159,0.084 L -1.952,5.105 0,0 z m 2.344,-5.791 c 0.374,0.02 0.956,0.124 1.536,0.124 0.581,0 1.307,-0.104 1.619,-0.124 C 4.565,-3.778 3.196,-0.644 2.407,1.161 1.659,2.906 0.413,5.81 -0.581,8.655 -0.81,8.591 -1.017,8.551 -1.246,8.551 c -0.249,0 -0.457,0.04 -0.685,0.104 -0.497,-1.703 -1.701,-4.401 -3.798,-9.092 l -2.408,-5.354 c 0.291,0.041 0.582,0.124 0.934,0.124 0.332,0 0.727,-0.083 0.997,-0.124 0.331,1.183 0.995,2.906 1.66,4.504 0.831,0.041 1.66,0.082 2.489,0.082 0.894,0 1.766,-0.041 2.658,-0.082 l 0.872,-2.201 0.871,-2.303"
                     inkscape:connector-curvature="0" />
                </g>
                <g
                   transform="translate(783.3393,494.1599)"
                   id="g36300"
                   style="fill:#64003c;fill-opacity:1">
                  <path
                     id="path36302"
                     style="fill:#64003c;fill-opacity:1;fill-rule:evenodd;stroke:none"
                     d="m 0,0 c 1.888,0.352 3.611,1.535 3.611,3.839 0,0.872 -0.332,1.724 -0.955,2.325 -0.893,0.851 -1.909,1.016 -3.258,1.016 -0.477,0 -2.885,-0.103 -3.425,-0.103 -1.059,0 -1.599,0.062 -2.076,0.103 0.147,-2.677 0.147,-2.967 0.147,-5.685 0,-4.006 -0.023,-4.463 -0.187,-8.552 0.457,0.063 0.954,0.125 1.432,0.125 0.518,0 0.975,-0.083 1.39,-0.125 0,0.541 -0.084,3.217 -0.084,3.82 l 0,2.947 0.499,0 c 1.121,-1.577 2.407,-3.404 3.467,-5.044 0.31,-0.477 0.767,-1.245 1.077,-1.723 0.623,0.083 0.872,0.125 1.683,0.125 0.746,0 1.266,-0.062 1.847,-0.125 -1.309,1.64 -1.868,2.367 -3.507,4.671 -0.312,0.435 -0.769,1.121 -1.08,1.555 L 0,0 z m -3.405,6.061 c 0.312,0.021 1.08,0.103 1.475,0.103 0.684,0 1.369,-0.103 1.93,-0.518 0.726,-0.541 0.871,-1.288 0.871,-2.159 0,-1.35 -0.768,-2.864 -2.843,-2.864 -0.54,0 -1.037,0.041 -1.433,0.062 l 0,5.376"
                     inkscape:connector-curvature="0" />
                </g>
              </g>
            </g>
            <g
               transform="matrix(1.0896425,0,0,1.0896425,25.486469,-25.800442)"
               style="fill:#54626d;fill-opacity:1"
               id="g39945">
              <g
                 style="fill:#54626d;fill-opacity:1"
                 id="g36256"
                 transform="translate(739.0791,481.8871)">
                <path
                   inkscape:connector-curvature="0"
                   d="m 0,0 c -0.212,-0.013 -0.421,-0.028 -0.637,-0.028 -0.24,0 -0.476,0.021 -0.719,0.028 L -0.65,1.702 0,0 z m 0.783,-1.93 c 0.124,0.006 0.317,0.041 0.511,0.041 0.194,0 0.436,-0.035 0.54,-0.041 C 1.522,-1.259 1.067,-0.214 0.802,0.387 0.555,0.968 0.14,1.937 -0.193,2.885 -0.27,2.864 -0.339,2.851 -0.414,2.851 -0.497,2.851 -0.567,2.864 -0.642,2.885 -0.809,2.318 -1.21,1.418 -1.909,-0.144 L -2.711,-1.93 c 0.097,0.014 0.193,0.041 0.311,0.041 0.111,0 0.242,-0.027 0.332,-0.041 0.11,0.394 0.332,0.968 0.553,1.501 0.277,0.014 0.554,0.028 0.83,0.028 0.298,0 0.589,-0.014 0.886,-0.028 L 0.49,-1.162 0.783,-1.93"
                   style="fill:#54626d;fill-opacity:1;fill-rule:evenodd;stroke:none"
                   id="path36258" />
              </g>
              <g
                 style="fill:#54626d;fill-opacity:1"
                 id="g36260"
                 transform="translate(741.5547,483.1047)">
                <path
                   inkscape:connector-curvature="0"
                   d="m 0,0 c 0,-1.183 0,-2.325 -0.077,-3.148 0.154,0.007 0.347,0.041 0.499,0.041 0.159,0 0.325,-0.034 0.484,-0.041 -0.055,0.56 -0.07,1.308 -0.07,2.338 0,0.699 0,1.896 0.077,2.408 C 0.747,1.578 0.574,1.557 0.422,1.557 0.319,1.557 0.062,1.585 -0.068,1.598 0,0.927 0,0.436 0,0"
                   style="fill:#54626d;fill-opacity:1;fill-rule:evenodd;stroke:none"
                   id="path36262" />
              </g>
              <g
                 style="fill:#54626d;fill-opacity:1"
                 id="g36264"
                 transform="translate(745.7035,482.3093)">
                <path
                   inkscape:connector-curvature="0"
                   d="m 0,0 c 0.629,0.116 1.204,0.512 1.204,1.28 0,0.29 -0.111,0.574 -0.318,0.775 -0.298,0.282 -0.637,0.338 -1.086,0.338 -0.161,0 -0.962,-0.035 -1.141,-0.035 -0.354,0 -0.533,0.022 -0.693,0.035 0.049,-0.892 0.049,-0.989 0.049,-1.895 0,-1.335 -0.007,-1.487 -0.063,-2.85 0.153,0.02 0.318,0.041 0.478,0.041 0.173,0 0.325,-0.028 0.463,-0.041 0,0.179 -0.028,1.072 -0.028,1.273 l 0,0.981 0.168,0 c 0.372,-0.524 0.802,-1.134 1.154,-1.68 0.104,-0.159 0.256,-0.416 0.36,-0.574 0.208,0.027 0.29,0.041 0.561,0.041 0.248,0 0.421,-0.021 0.615,-0.041 C 1.288,-1.806 1.1,-1.564 0.555,-0.796 0.45,-0.65 0.298,-0.422 0.194,-0.277 L 0,0 z m -1.135,2.02 c 0.104,0.007 0.36,0.035 0.492,0.035 0.229,0 0.456,-0.035 0.643,-0.173 0.242,-0.181 0.291,-0.429 0.291,-0.72 0,-0.45 -0.256,-0.955 -0.947,-0.955 -0.181,0 -0.347,0.015 -0.479,0.021 l 0,1.792"
                   style="fill:#54626d;fill-opacity:1;fill-rule:evenodd;stroke:none"
                   id="path36266" />
              </g>
              <g
                 style="fill:#54626d;fill-opacity:1"
                 id="g36268"
                 transform="translate(749.3417,481.576)">
                <path
                   inkscape:connector-curvature="0"
                   d="M 0,0 C -0.325,0.961 -0.774,2.31 -0.989,3.127 -1.161,3.099 -1.315,3.085 -1.473,3.085 c -0.166,0 -0.402,0.028 -0.541,0.042 0.285,-0.747 0.528,-1.412 0.713,-1.937 0.319,-0.9 0.527,-1.522 0.776,-2.284 l 0.172,-0.525 c 0.097,0.021 0.208,0.041 0.283,0.041 0.077,0 0.146,-0.013 0.263,-0.041 0.111,0.36 0.244,0.802 0.341,1.086 0.268,0.79 0.302,0.9 0.656,1.882 L 1.397,1.923 C 1.473,1.702 1.605,1.349 1.68,1.128 1.757,0.913 2.11,-0.146 2.194,-0.38 c 0.109,-0.312 0.138,-0.402 0.394,-1.239 0.063,0.007 0.193,0.041 0.296,0.041 0.098,0 0.174,-0.02 0.278,-0.041 0.263,0.823 0.291,0.906 0.678,2.013 C 4.22,1.473 4.455,2.089 4.87,3.127 4.766,3.099 4.663,3.085 4.559,3.085 4.429,3.085 4.317,3.107 4.241,3.127 3.992,2.228 3.867,1.791 3.667,1.196 3.342,0.228 3.3,0.117 3.1,-0.408 2.878,0.187 2.663,0.788 2.464,1.398 2.353,1.73 1.931,3.113 1.923,3.127 1.827,3.107 1.757,3.085 1.619,3.085 1.494,3.085 1.404,3.113 1.314,3.127 1.107,2.282 0.374,0.249 0.304,0.062 L 0.132,-0.387 0,0"
                   style="fill:#54626d;fill-opacity:1;fill-rule:evenodd;stroke:none"
                   id="path36270" />
              </g>
              <g
                 style="fill:#54626d;fill-opacity:1"
                 id="g36272"
                 transform="translate(756.3563,481.8871)">
                <path
                   inkscape:connector-curvature="0"
                   d="m 0,0 c -0.214,-0.013 -0.421,-0.028 -0.637,-0.028 -0.241,0 -0.476,0.021 -0.719,0.028 L -0.65,1.702 0,0 z m 0.781,-1.93 c 0.126,0.006 0.32,0.041 0.513,0.041 0.194,0 0.436,-0.035 0.54,-0.041 C 1.523,-1.259 1.065,-0.214 0.802,0.387 0.553,0.968 0.138,1.937 -0.193,2.885 -0.269,2.864 -0.339,2.851 -0.414,2.851 -0.498,2.851 -0.566,2.864 -0.643,2.885 -0.808,2.318 -1.21,1.418 -1.909,-0.144 L -2.712,-1.93 c 0.097,0.014 0.195,0.041 0.312,0.041 0.111,0 0.242,-0.027 0.331,-0.041 0.111,0.394 0.333,0.968 0.554,1.501 0.277,0.014 0.553,0.028 0.829,0.028 0.299,0 0.589,-0.014 0.887,-0.028 L 0.492,-1.162 0.781,-1.93"
                   style="fill:#54626d;fill-opacity:1;fill-rule:evenodd;stroke:none"
                   id="path36274" />
              </g>
              <g
                 style="fill:#54626d;fill-opacity:1"
                 id="g36276"
                 transform="translate(760.0764,481.8117)">
                <path
                   inkscape:connector-curvature="0"
                   d="M 0,0 C 0,0.062 0.043,0.137 0.09,0.221 0.381,0.719 0.652,1.237 0.962,1.736 1.065,1.902 1.57,2.704 1.674,2.891 1.599,2.863 1.522,2.85 1.385,2.85 1.231,2.85 1.094,2.871 0.983,2.891 0.486,1.798 0.374,1.563 -0.213,0.553 -0.802,1.585 -1.065,2.131 -1.425,2.891 -1.626,2.857 -1.827,2.85 -1.992,2.85 -2.144,2.85 -2.303,2.863 -2.56,2.891 -2.198,2.289 -1.612,1.335 -1.259,0.725 L -0.85,0.021 c 0,-0.43 -0.022,-1.336 -0.042,-1.876 0.131,0.014 0.325,0.042 0.464,0.042 0.159,0 0.317,-0.028 0.477,-0.042 C 0.022,-1.211 0,-0.838 0,-0.257 L 0,0"
                   style="fill:#54626d;fill-opacity:1;fill-rule:evenodd;stroke:none"
                   id="path36278" />
              </g>
              <g
                 style="fill:#54626d;fill-opacity:1"
                 id="g36280"
                 transform="translate(762.1847,480.9946)">
                <path
                   inkscape:connector-curvature="0"
                   d="m 0,0 c -0.034,-0.332 -0.041,-0.422 -0.159,-0.782 0.249,-0.124 0.698,-0.353 1.294,-0.353 1.266,0 1.757,0.81 1.757,1.515 0,0.194 -0.049,0.603 -0.339,0.914 C 2.353,1.515 2.145,1.591 1.612,1.798 1.003,2.034 0.65,2.172 0.65,2.678 c 0,0.407 0.27,0.747 0.817,0.747 0.436,0 0.802,-0.208 0.906,-0.603 l 0.097,0 C 2.533,3.085 2.547,3.141 2.685,3.481 2.346,3.632 2.041,3.763 1.536,3.763 0.284,3.763 -0.077,2.988 -0.077,2.381 -0.077,1.806 0.125,1.452 0.796,1.155 0.989,1.073 1.314,0.948 1.508,0.865 1.64,0.809 2.076,0.616 2.076,0.069 2.076,-0.429 1.716,-0.796 1.17,-0.796 0.762,-0.796 0.416,-0.692 0.097,0 L 0,0"
                   style="fill:#54626d;fill-opacity:1;fill-rule:evenodd;stroke:none"
                   id="path36282" />
              </g>
            </g>
            <g
               transform="matrix(0.91609376,0,0,0.91609376,207.224,34.201975)"
               id="g39977">
              <g
                 transform="translate(756.5095,514.582)"
                 id="g36304"
                 style="fill:#54626d;fill-opacity:1">
                <path
                   id="path36306"
                   style="fill:#54626d;fill-opacity:1;fill-rule:nonzero;stroke:none"
                   d="m 0,0 c -0.828,-0.295 -1.804,-0.45 -2.188,-0.45 -0.692,0 -1.815,-0.383 -2.218,-0.729 1.673,0.028 3.45,0.063 5.201,0.105 -0.117,0.175 -0.488,0.719 -0.489,0.72 C 0.154,-0.137 0.069,-0.041 0.02,0.005 0.01,0.002 0.014,0.004 0,0 m -10.096,12.423 c 2.181,0 6.203,0.054 10.173,0.144 0.451,0.363 0.922,0.727 1.411,1.095 -4.401,0.11 -9.143,0.178 -11.584,0.178 -1.029,0 -1.862,-0.317 -1.862,-0.709 0,-0.392 0.833,-0.708 1.862,-0.708 m 0.626,3.424 c 0,-0.309 0.656,-0.557 1.464,-0.557 2.491,0 8.026,0.09 12.066,0.228 0.302,0.209 0.607,0.426 0.902,0.625 -4.077,0.158 -10.287,0.26 -12.968,0.26 -0.808,0 -1.464,-0.248 -1.464,-0.556 M 8.479,8.122 c 0.445,-0.263 0.985,-0.53 1.653,-0.773 2.116,0.106 3.476,0.224 3.476,0.349 0,0.154 -2.096,0.299 -5.129,0.424 m -19.833,1.499 c 1.851,0 4.874,0.035 8.164,0.096 0.475,0.451 0.979,0.911 1.513,1.379 -3.858,0.078 -7.544,0.126 -9.677,0.126 -1.159,0 -2.101,-0.359 -2.101,-0.802 0,-0.44 0.942,-0.799 2.101,-0.799 M 9.672,13.349 C 9.351,13.184 9.051,13.022 8.746,12.858 c 1.559,0.085 2.549,0.176 2.549,0.273 0,0.076 -0.612,0.149 -1.623,0.218 m -14.368,4.267 c 2.368,0 9.574,0.176 9.574,0.394 0,0.219 -7.207,0.396 -9.574,0.396 -0.46,0 -0.833,-0.177 -0.833,-0.396 0,-0.218 0.373,-0.394 0.833,-0.394 m 15.512,-7.129 c -0.019,-0.068 -0.063,-0.186 -0.145,-0.331 1.317,0.083 2.12,0.173 2.12,0.264 0,0.088 -0.726,0.172 -1.924,0.252 L 10.816,10.487 z M 1.864,-2.643 c -4.504,0.118 -9.45,0.189 -11.96,0.189 -1.029,0 -1.862,-0.319 -1.862,-0.71 0,-0.391 0.833,-0.708 1.862,-0.708 2.642,0 7.984,0.08 12.669,0.207 -0.237,0.336 -0.474,0.68 -0.709,1.022 m 2.127,-2.904 c -4.034,0.138 -9.52,0.227 -11.997,0.227 -0.808,0 -1.464,-0.251 -1.464,-0.559 0,-0.306 0.656,-0.557 1.464,-0.557 2.596,0 8.497,0.098 12.569,0.247 -0.19,0.204 -0.382,0.421 -0.572,0.642 m -9.52,-2.495 c 0,-0.218 0.373,-0.397 0.833,-0.397 2.367,0 9.574,0.179 9.574,0.397 0,0.216 -7.206,0.394 -9.574,0.394 -0.46,0 -0.833,-0.178 -0.833,-0.394 m -4.264,9.474 c 0.04,0.198 0.131,0.416 0.312,0.656 -0.025,-0.033 -0.043,-0.06 -0.014,-0.009 0.162,0.276 0.377,0.62 0.642,1.021 -1.242,0.013 -2.334,0.021 -3.186,0.021 -1.232,0 -2.232,-0.382 -2.232,-0.849 0,-0.472 1,-0.851 2.232,-0.851 0.63,0 1.391,0.003 2.246,0.011 m 1.824,-2.663 c -0.301,0.294 -1.311,1.457 -1.435,1.569 -0.735,0.006 -1.399,0.011 -1.95,0.011 -1.159,0 -2.101,-0.36 -2.101,-0.803 0,-0.44 0.942,-0.8 2.101,-0.8 0.889,0 2.054,0.009 3.385,0.023 m -0.155,5.38 c 0.364,0.502 0.788,1.055 1.277,1.653 -2.176,0.032 -4.083,0.048 -5.421,0.048 -1.256,0 -2.274,-0.389 -2.274,-0.865 0,-0.479 1.018,-0.867 2.274,-0.867 1.066,0 2.506,0.012 4.144,0.031 m -3.915,2.698 c 1.478,0 3.66,0.021 6.137,0.059 0.44,0.5 0.918,1.02 1.443,1.56 -3.064,0.053 -5.822,0.081 -7.58,0.081 -1.232,0 -2.232,-0.38 -2.232,-0.849 0,-0.471 1,-0.851 2.232,-0.851"
                   inkscape:connector-curvature="0" />
              </g>
              <g
                 style="fill:#64003c;fill-opacity:1"
                 id="g36308"
                 transform="translate(770.3536,520.2068)">
                <path
                   inkscape:connector-curvature="0"
                   d="m 0,0 c 0.018,-0.431 0.014,-0.859 -0.007,-1.279 -4.195,-0.167 -8.169,-0.419 -8.169,-0.703 0,-0.279 3.887,-0.53 8.03,-0.694 -0.072,-0.478 -0.166,-0.95 -0.28,-1.41 -4.086,-0.166 -7.878,-0.413 -7.878,-0.689 0,-0.267 3.539,-0.505 7.46,-0.674 -0.179,-0.501 -0.384,-0.985 -0.613,-1.452 -3.365,-0.161 -6.149,-0.378 -6.149,-0.614 0,-0.221 2.432,-0.422 5.496,-0.581 -0.173,-0.28 -0.35,-0.553 -0.541,-0.813 -0.198,-0.283 -0.413,-0.563 -0.645,-0.838 -1.915,-0.146 -3.229,-0.31 -3.229,-0.486 0,-0.155 0.942,-0.296 2.392,-0.423 -0.791,-0.784 -1.727,-1.516 -2.831,-2.154 0,0 -1.298,1.118 -2.37,2.424 -0.956,1.166 -2.984,4.236 -3.462,4.923 -0.477,0.688 -0.791,0.889 -1.35,0.689 -0.748,-0.265 -1.617,-0.397 -1.886,-0.397 -0.267,0 -0.413,0.103 0.035,0.282 0.447,0.179 2.213,1.014 3.084,2.739 0.976,1.942 0.117,4.622 0.117,4.622 -0.327,-1.431 -1.073,-1.968 -1.073,-1.968 0.241,1.33 -0.021,2.538 -0.679,3.385 l -0.366,-1.683 c 0,0 -0.231,0.01 -0.797,-0.467 -0.568,-0.478 -0.724,-1.175 -0.724,-1.175 0.447,-0.18 0.984,0.268 0.984,0.268 -0.686,-2.566 -1.669,-4.653 -2.386,-5.758 -0.716,-1.104 -1.307,-1.521 -2.026,-1.811 -0.605,-0.244 -0.805,0.04 -0.805,0.04 -0.529,0.459 -0.925,0.877 -1.338,1.376 0,0 -0.033,0.059 0.08,0.056 0.295,-0.004 0.819,0.5 0.934,0.71 0.133,0.238 0.118,0.422 0.051,0.436 -0.064,0.011 -0.178,-0.18 -0.745,-0.538 -0.567,-0.359 -0.827,-0.11 -1.015,0.089 -0.145,0.158 -0.004,0.354 0.089,0.478 0.085,0.11 3.08,5.693 11.003,11.56 10.384,7.687 17.014,9.762 17.393,9.912 0.251,0.1 0.661,0.229 0.754,0.135 0.103,-0.108 0.155,-0.195 0.14,-0.32 C 6.665,17.071 6.598,17.008 6.119,16.795 2.131,15.039 -2.521,12.113 -5.164,10.41 -8.415,8.826 -11.519,6.564 -11.632,6.509 c -0.25,-0.156 -0.066,-0.38 0.086,-0.286 5.488,3.652 11.926,6.139 19.037,8.176 0.342,0.097 0.527,0.097 0.585,0.023 0.064,-0.084 0.09,-0.18 0.099,-0.283 C 8.186,14.008 8.078,13.939 7.786,13.824 0.145,10.986 -5.487,8.348 -9.11,5.913 c 0,0 -0.376,-0.227 -0.381,-0.489 -0.001,-0.097 0.201,-0.11 0.201,-0.11 1.816,-0.034 4.239,-0.14 5.391,-0.208 0,0 -0.163,-0.584 -1.267,-1.055 C -6.02,3.688 -6.807,3.745 -7.59,3.74 -7.764,3.742 -7.912,3.568 -7.772,3.379 -7.701,3.288 -6.04,0.611 0,0"
                   style="fill:#64003c;fill-opacity:1;fill-rule:nonzero;stroke:none"
                   id="path36310" />
              </g>
            </g>
          </g>
        </g>
      </g>
    </g>
  </g>
</svg>
